<?xml version="1.0" standalone="no"?>
<!DOCTYPE svg PUBLIC "-//W3C//DTD SVG 20010904//EN"
 "http://www.w3.org/TR/2001/REC-SVG-20010904/DTD/svg10.dtd">
<svg version="1.0" xmlns="http://www.w3.org/2000/svg"
 width="88.000000pt" height="88.000000pt" viewBox="0 0 88.000000 88.000000"
 preserveAspectRatio="xMidYMid meet">
<metadata>
Created by potrace 1.11, written by Peter Selinger 2001-2013
</metadata>
<g transform="translate(0.000000,88.000000) scale(0.100000,-0.100000)"
fill="#000000" stroke="none">
<path d="M317 688 c-9 -13 -70 -79 -136 -148 -74 -77 -116 -129 -110 -134 5
-6 18 -1 34 14 l25 23 0 -127 c0 -82 4 -125 10 -121 6 4 10 61 10 138 l0 132
95 100 95 100 126 -128 c89 -91 129 -126 137 -118 7 7 3 17 -14 34 -13 13 -75
76 -137 140 -63 64 -115 117 -117 117 -1 0 -10 -10 -18 -22z"/>
<path d="M426 672 c-2 -4 57 -69 131 -146 93 -95 138 -135 146 -127 7 7 -27
48 -109 132 -65 67 -125 128 -132 135 -15 16 -28 18 -36 6z"/>
<path d="M530 652 c0 -5 60 -71 134 -148 90 -93 138 -136 144 -129 7 7 -34 56
-122 148 -118 123 -156 154 -156 129z"/>
<path d="M279 523 c-1 -10 -2 -40 -2 -68 -1 -49 -1 -50 31 -53 l32 -3 0 70 0
71 -30 0 c-21 0 -30 -5 -31 -17z"/>
<path d="M364 533 c-6 -5 -11 -36 -11 -70 l-1 -63 33 0 c29 0 32 3 33 30 0 17
-5 30 -11 30 -9 0 -9 2 0 8 20 13 11 67 -12 70 -11 1 -25 -1 -31 -5z"/>
</g>
</svg>
